<svg id="Capa_1" data-name="Capa 1" xmlns="http://www.w3.org/2000/svg" viewBox="0 0 371.51 371.31"><defs><style>.cls-1{fill:#191919;}.cls-2{fill:#ebebeb;}</style></defs><rect class="cls-1" x="86.05" y="84.35" width="202" height="202"/><path class="cls-2" d="M185.74,371.3C84.91,372-.06,289.33,0,185.43.06,83.71,83.56-2,189.73,0,290.33,2,372.11,85,371.51,187S287.23,372,185.74,371.3ZM96.67,138.93c-.07,1.69-.15,2.56-.15,3.43q0,47.16,0,94.31c0,9.36,4.91,14.26,14.33,14.26q75,.06,150.1,0c9.24,0,14-4.86,14-14.13q0-47.16,0-94.31c0-1-.19-2-.34-3.49-25.81,18.38-51.15,36.31-76.34,54.43-7.49,5.39-16.58,6.1-23.56,1.11q-30.27-21.63-60.56-43.24C108.56,147.27,102.87,143.3,96.67,138.93Zm170.14-13.28-.05-1.1c-2.3-.16-4.61-.46-6.91-.46q-51.66,0-103.31,0c-15.22,0-30.45,0-45.67,0-2.07,0-4.14.44-7.16.78,1.77,1.32,2.54,1.93,3.35,2.5l73.51,52.08c3.67,2.6,6.85,2.48,10.64-.23,11.64-8.36,23.27-16.73,35-25C239.68,144.65,253.26,135.17,266.81,125.65Z"/></svg>