<svg id="Capa_1" data-name="Capa 1" xmlns="http://www.w3.org/2000/svg" viewBox="0 0 1053.93 1053.93"><defs><style>.cls-1{fill:#f2eadf;stroke:#f2eadf;stroke-miterlimit:10;}.cls-2{fill:#111110;}</style></defs><circle class="cls-1" cx="526.96" cy="526.96" r="501.3"/><path class="cls-2" d="M227.64,478.28l7-195.67h46.7l42.11,134.12h2l42.1-134.12h46.7l7,195.67H391.47L389.17,400,387,314.92h-2.45l-44.71,140.7H309.09l-44.7-140.7h-2.45l-2.3,85.28-2.14,78.08Z"/><path class="cls-2" d="M446.43,478.28l60-195.67h47.62l60,195.67H583L532.17,303.13h-3.83L477.51,478.28Zm39.2-54.66V398.21h89v25.41Z"/><path class="cls-2" d="M673.18,478.28H642.41V282.61h30.77Z"/><path class="cls-2" d="M747.59,478.28H716.82V282.61h30.77Zm-13.93-26H836.24v26H733.66Z"/><path class="cls-2" d="M349.36,754.78l7-195.67h46.7l42.11,134.12h2l42.1-134.12H536l7,195.67H513.19l-2.3-78.24-2.14-85.13H506.3L461.59,732.12H430.81l-44.7-140.71h-2.45l-2.3,85.28-2.14,78.09Z"/><path class="cls-2" d="M583.46,754.78V559.11h30.31V754.78Zm8.88-170.1V559.11h115.6v25.57Zm.15,170.1V729.06H709v25.72Zm8.42-87V642.4H705.64v25.41Z"/></svg>